<svg fill="#0D8484" height="60" viewBox="0 0 300 60" width="300" xmlns="http://www.w3.org/2000/svg"><path d="m293.5 52.3c-.7.8-1.5.9-2.5.9-2.3-.1-4.7 0-7 0-.7 0-1-.2-1.3-.8-2.2-5.2-4.3-10.4-6.7-15.5-2.2-4.9-4.2-9.9-6.3-14.9-.1-.2-.2-.4-.3-.7-.4.4-.5.9-.7 1.3-2 4.6-3.9 9.1-5.8 13.7-.5 1.2-.5 1.2.8 1.2h7.4c.8 0 1.2.2 1.6 1 .9 2.4 1.9 4.7 3 7 .3.8.2 1-.6.9-5.1 0-10.2 0-15.3 0-.8 0-1.1.2-1.4.9-.6 1.6-1.4 3.2-2.1 4.9-.3.7-.7 1-1.5 1-2.5 0-5.1 0-7.6 0-1.8 0-2.4-.9-1.7-2.5 2.6-6.1 5.2-12.1 7.8-18.2 3.2-7.5 6.4-15 9.6-22.5.4-.9.9-1.3 1.8-1.3h9.4c1 0 1.5.5 1.9 1.4 5.8 13.6 11.7 27.2 17.5 40.8.1.1.1.3.3.4-.3.3-.3.6-.3 1zm-266.5-44.3v8.9c0 .7-.2.9-.9 1-6.4 1.4-10.2 6-10.3 12.6-.1 6.2 4.1 11.6 10.1 13 .8.2 1.1.4 1.1 1.3-.1 3 0 6.1 0 9.1-.7 0-1.3 0-2 0-.2-.4-.7-.3-1.1-.4-9.6-1.7-17.1-9.3-18.6-18.9 0-.3 0-.6-.4-.7 0-2.1 0-4.1 0-6.2.4-.1.3-.5.4-.8 2-9.6 7.9-15.4 17.1-18.1.9-.3 1.9-.2 2.7-.8zm120.6 0c.1.4.5.3.8.3 10 2 17.2 9.8 18.6 19.9 1.6 11.6-6.7 23.1-18.2 25.3-.3.1-.8 0-1 .4-.5 0-1.1 0-1.6 0 0-3 0-6-.1-9 0-.8.2-1.1 1-1.2 7-1.6 11.4-8.7 9.7-15.6-1.3-5.2-4.7-8.4-9.8-9.7-.5-.1-.8-.2-.8-.9 0-3.1 0-6.3 0-9.4.5-.1 1-.1 1.4-.1zm-7.2 45.9c-.1-.4-.5-.3-.7-.4-10.1-2.1-17.7-10.9-18.3-20.8-.7-11.2 6.3-20.6 16-23.7.8-.2 1.6-.4 2.4-.6.3-.1.7 0 .9-.4h1.6c0 3.1 0 6.1.1 9.2 0 .7-.2.9-.9 1.1-8.9 2.1-13 11.8-8.2 19.6 1.9 3.1 4.7 4.9 8.2 5.8.4.1.9 0 .9.7 0 3.2-.1 6.3-.1 9.5-.7-0-1.3-0-1.9-0z"/><path d="m30.8 53.9c0-3 .1-6.1 0-9.1 0-.8.2-1.1 1-1.2 3.3-.6 5.9-2.3 7.9-5 .8-1 1.4-1.1 2.5-.5 1.9 1.1 3.9 2.2 5.8 3.3 1.2.7 1.4 1.6.6 2.7-3.7 5-8.6 8.2-14.7 9.4-.4.1-.8 0-1.1.4-.6 0-1.3 0-2 0zm2-45.9c.9.6 2 .5 2.9.7 5.2 1.4 9.5 4.1 12.8 8.3 1.1 1.4.9 2.2-.6 3.1-1.9 1.1-3.7 2.2-5.6 3.3-1 .7-1.7.6-2.3-.4-2-2.8-4.7-4.5-8.1-5-.8-.1-1-.5-1-1.2 0-2.9 0-5.8 0-8.7.6-.1 1.3-.1 1.9-.1z"/><path d="m187.1 24.5c0-4.5 0-9.1 0-13.6 0-1.6.5-2.1 2.1-2.1 6.3 0 12.6-.1 18.8 0 6 .1 11.4 1.8 15.8 6 3.9 3.7 5.9 8.4 6.3 13.7.6 7.1-1.2 13.5-6.6 18.5-4.3 4.1-9.7 6-15.6 6.1-6.4.1-12.8 0-19.1 0-1.2 0-1.8-.5-1.8-1.8 0-2.4 0-4.7 0-7.1 0-.9.2-1.1 1.1-1.1h18.7c5.2 0 9.6-3 11.6-7.7 1.9-4.5.7-10.5-2.7-13.7-2.5-2.3-5.5-3-8.8-3.1-2.6-.1-5.3 0-7.9 0-.9 0-1.3.3-1.3 1.3v18.2c0 1-.3 1.2-1.2 1.1-2.8-.1-5.6-.1-8.4 0-.9 0-1.2-.2-1.2-1.2.2-4.4.2-9 .2-13.5zm-94.1 19.4v7.2c0 1.5-.5 2-2 2-2.4 0-4.7 0-7.1 0-1.4 0-1.9-.5-1.9-1.9 0-4.5 0-9.1 0-13.6 0-.9-.2-1.6-.7-2.3-5.4-7.9-10.8-15.8-16.2-23.7-.4-.6-.8-1.3-.4-2s1.1-.8 1.8-.8h7.8c.8 0 1.4.3 1.9 1 5.7 8.5 11.2 17.2 16.5 25.9.2.3.3.6.3.9 0 2.4.1 4.9 0 7.3zm17.6-33.7c0 .5-.3.9-.6 1.4-3.4 4.9-6.8 9.8-10.2 14.7-1.3 1.9-2.6 3.8-3.9 5.7-.3.5-.6.7-.9 0-1.6-2.6-3.2-5.2-4.8-7.8-.3-.5-.3-.9 0-1.3 2.9-4.4 5.7-8.8 8.6-13.1.4-.7 1-1 1.8-1h8.1c1.3-.1 1.9.4 1.9 1.4zm33.6 26.8c-3.4 0-6.2-2.8-6.2-6.2 0-3.5 2.7-6.2 6.2-6.2 3.4 0 6.2 2.8 6.2 6.2 0 3.5-2.8 6.3-6.2 6.2z"/><path d="m5-46v36"/><path d="m-49 8h36"/><path d="m-49 53.9h36"/><path d="m5 107.9v-36"/><path d="m293.5-46v36"/><path d="m347.5 8h-36"/><path d="m347.5 53.9h-36"/><path d="m293.5 107.9v-36"/></svg>