<svg fill="none" height="24" viewBox="0 0 24 24" width="24" xmlns="http://www.w3.org/2000/svg"><path d="m14.121 5.63555c.4179-.41789.914-.74939 1.4601-.97556.546-.22616 1.1312-.34257 1.7222-.34257s1.1762.11641 1.7222.34257c.546.22617 1.0421.55767 1.46.97556.4179.4179.7494.91402.9756 1.46003s.3426 1.13123.3426 1.72222c0 .591-.1164 1.17621-.3426 1.7222-.2262.546-.5577 1.0422-.9756 1.4601l-7.425 7.425c-1.1252 1.1252-2.6514 1.7574-4.24272 1.7574-1.59134 0-3.1175-.6322-4.24275-1.7574-1.12525-1.1253-1.7574-2.6515-1.7574-4.2428s.63215-3.1175 1.7574-4.2427l9.54597-9.54605 1.0605 1.0605-9.54597 9.54605c-.84398.8439-1.31813 1.9886-1.31813 3.1822s.47415 2.3383 1.31813 3.1823c.84399.8439 1.98868 1.3181 3.18225 1.3181 1.19362 0 2.33822-.4742 3.18222-1.3181l7.425-7.425c.2787-.2787.4997-.6095.6505-.97351.1508-.36405.2284-.75424.2284-1.14829 0-.39404-.0776-.78423-.2284-1.14828s-.3718-.69483-.6505-.97347c-.2786-.27863-.6094-.49965-.9734-.65045-.3641-.15079-.7543-.2284-1.1483-.2284-.3941 0-.7843.07761-1.1483.2284-.3641.1508-.6948.37182-.9735.65045l-6.89397 6.89555c-.07163.0691-.12877.1519-.16807.2434-.03931.0915-.06.1899-.06087.2895-.00086.0996.01811.1983.05583.2905.03771.0922.0934.1759.16382.2463.07041.0705.15415.1262.24633.1639.09217.0377.19093.0567.29051.0558.09959-.0009.198-.0216.2895-.0609.09151-.0393.17427-.0964.24345-.168l6.89397-6.89405 1.062 1.0605-6.8955 6.89405c-.2075.2149-.4558.3863-.73031.5042s-.56975.18-.86851.1826c-.29875.0026-.59503-.0544-.87154-.1675-.27652-.1131-.52774-.2802-.739-.4915-.21126-.2112-.37833-.4624-.49146-.739-.11313-.2765-.17006-.5727-.16746-.8715.00259-.2988.06466-.594.18258-.8685s.28933-.5228.50423-.7303z" fill="#606266"/></svg>