<svg fill="none" height="24" viewBox="0 0 24 24" width="24" xmlns="http://www.w3.org/2000/svg"><path d="m16.773 14.6522-1.0605-1.0605 2.121-2.1225c1.758-1.75647 1.995-4.36797.531-5.83347-1.4655-1.464-4.077-1.227-5.835.531l-2.1195 2.121-1.06052-1.0605 2.12102-2.121c2.3445-2.343 5.9055-2.58 7.956-.531 2.0505 2.0505 1.812 5.61147-.531 7.95597l-2.121 2.121zm-2.121 2.121-2.121 2.121c-2.3445 2.343-5.90552 2.58-7.95602.531-2.0505-2.0505-1.812-5.6115.531-7.956l2.121-2.12097 1.0605 1.06047-2.121 2.1225c-1.758 1.7565-1.995 4.368-.531 5.8335 1.4655 1.464 4.077 1.227 5.83502-.531l2.121-2.121zm0-8.48547 1.0605 1.0605-6.36452 6.36447-1.0605-1.0605z" fill="#606266"/></svg>