<svg height="24" viewBox="0 0 24 24" width="24" xmlns="http://www.w3.org/2000/svg"><path d="m13.125 7.12493c0 .62132-.5037 1.125-1.125 1.125s-1.125-.50368-1.125-1.125.5037-1.125 1.125-1.125 1.125.50368 1.125 1.125z"/><path d="m12 9.90227c-.4142 0-.75.33583-.75.75003v6.6c0 .4142.3358.75.75.75s.75-.3358.75-.75v-6.6c0-.4142-.3358-.75003-.75-.75003z"/><path clip-rule="evenodd" d="m1.5 12c0 5.799 4.70101 10.5 10.5 10.5 2.7848 0 5.4555-1.1062 7.4246-3.0754 1.9692-1.9691 3.0754-4.6398 3.0754-7.4246 0-5.79899-4.701-10.5-10.5-10.5-5.79899 0-10.5 4.70101-10.5 10.5zm1.5.0011c0 4.9706 4.02944 9 9 9 2.3869 0 4.6761-.9482 6.364-2.636 1.6878-1.6879 2.636-3.9771 2.636-6.364 0-4.97056-4.0294-9-9-9-4.97056 0-9 4.02944-9 9z" fill-rule="evenodd"/></svg>