<svg fill="none" height="10" viewBox="0 0 18 10" width="18" xmlns="http://www.w3.org/2000/svg"><path d="m16.4999.629472-7.49997 7.312498-7.5-7.312498c-.1405-.1405-.3045-.21075-.492-.21075-.187504 0-.351504.07025-.492004.21075s-.21075.3045-.21075.491998c0 .1875.0625.34375.1875.46875l7.992004 7.78125c.1405.1405.3125.21075.51599.21075.2035 0 .3755-.07025.516-.21075l7.99203-7.758c.125-.1405.1875-.3085.1875-.504 0-.195499-.0703-.359498-.2108-.491998s-.3045-.199001-.492-.199501-.3515.069751-.492.210751z" fill="#606266"/></svg>