<svg width="18" height="10" viewBox="0 0 18 10" fill="none" xmlns="http://www.w3.org/2000/svg">
    <path d="M16.4999 0.629472L8.99993 7.94197L1.49993 0.629472C1.35943 0.488972 1.19543 0.418722 1.00793 0.418722C0.820426 0.418722 0.656426 0.488972 0.515926 0.629472C0.375426 0.769972 0.305176 0.933972 0.305176 1.12147C0.305176 1.30897 0.367676 1.46522 0.492676 1.59022L8.48468 9.37147C8.62518 9.51197 8.79718 9.58222 9.00067 9.58222C9.20417 9.58222 9.37617 9.51197 9.51667 9.37147L17.5087 1.61347C17.6337 1.47297 17.6962 1.30497 17.6962 1.10947C17.6962 0.913971 17.6259 0.749972 17.4854 0.617472C17.3449 0.484972 17.1809 0.418471 16.9934 0.417971C16.8059 0.417471 16.6419 0.487722 16.5014 0.628722L16.4999 0.629472Z" fill="#606266"/>
</svg>
