<svg height="7" viewBox="0 0 13 7" width="13" xmlns="http://www.w3.org/2000/svg"><path d="m11.7296.449596-4.99999 4.875004-5-4.875004c-.09367-.093667-.203-.1405-.328-.1405s-.23434.046833-.328.1405c-.093671.093666-.140505.203-.140505.328s.041667.229164.125005.312504l5.328 5.1875c.09366.09366.20833.1405.344.1405.13566 0 .25033-.04684.344-.1405l5.32799-5.172c.0833-.09367.125-.205671.125-.336005 0-.130333-.0468-.239666-.1405-.327999s-.203-.132667-.328-.133c-.125-.000334-.2343.0465-.328.1405z"/></svg>