<svg height="21" viewBox="0 0 20 21" width="20" xmlns="http://www.w3.org/2000/svg"><path d="m12.1208 4.63653c.4179-.4179.914-.74939 1.46-.97556.546-.22616 1.1312-.34257 1.7222-.34257s1.1762.11641 1.7223.34257c.546.22617 1.0421.55766 1.46.97556s.7494.91402.9755 1.46003c.2262.54601.3426 1.13122.3426 1.72222s-.1164 1.17621-.3426 1.72222c-.2261.546-.5576 1.0421-.9755 1.46l-7.425 7.425c-1.12526 1.1253-2.65142 1.7574-4.24276 1.7574s-3.11751-.6321-4.24275-1.7574c-1.12525-1.1252-1.757407-2.6514-1.757407-4.2427 0-1.5914.632157-3.1175 1.757407-4.24277l9.54601-9.545999 1.0605 1.060499-9.54601 9.54597c-.84399.844-1.31813 1.9887-1.31813 3.1823s.47414 2.3382 1.31813 3.1822c.84398.844 1.98867 1.3182 3.18225 1.3182 1.19357 0 2.33826-.4742 3.18225-1.3182l7.42501-7.42497c.2786-.27863.4996-.60942.6504-.97347s.2284-.75423.2284-1.14828-.0776-.78423-.2284-1.14828-.3718-.69484-.6504-.97347-.6094-.49965-.9735-.65045c-.364-.15079-.7542-.22841-1.1483-.22841-.394 0-.7842.07762-1.1482.22841-.3641.1508-.6949.37182-.9735.65045l-6.89401 6.89547c-.07164.0692-.12877.152-.16808.2435s-.05999.1899-.06086.2895.01811.1983.05582.2905.0934.1759.16382.2463.15416.1261.24633.1638c.09217.0378.19093.0567.29052.0559.09958-.0009.198-.0216.2895-.0609s.17426-.0964.24345-.1681l6.89401-6.89397 1.062 1.0605-6.89551 6.89397c-.20756.2149-.45583.3863-.73034.5043-.27451.1179-.56976.1799-.86851.1825s-.59503-.0543-.87155-.1674c-.27652-.1132-.52773-.2802-.73899-.4915-.21126-.2112-.37833-.4625-.49146-.739s-.17006-.5728-.16747-.8715c.0026-.2988.06467-.594.18259-.8685s.28933-.5228.50423-.7304z"/></svg>