<svg height="21" viewBox="0 0 21 21" width="21" xmlns="http://www.w3.org/2000/svg"><path d="m12.5689 5.07706c.3519-.3445.7683-.6163 1.2253-.79989s.9457-.27537 1.4381-.27009c.4925.00527.9791.10749 1.4321.30082s.8634.47399 1.2079.82595.6163.76832.7999 1.22533c.1836.457.2754.94568.2701 1.43815s-.1075.97908-.3008 1.43205c-.1934.45297-.474.86342-.826 1.20792l-6.2534 6.1209c-.9477.9276-2.22504 1.4408-3.55109 1.4266-1.32604-.0142-2.59212-.5546-3.51974-1.5023-.92761-.9477-1.44076-2.2251-1.42656-3.5511.0142-1.3261.55458-2.5922 1.50228-3.51977l8.03971-7.86937.8742.89317-8.03968 7.86937c-.71081.6957-1.11612 1.6454-1.12677 2.64-.01065.9945.37424 1.9526 1.06999 2.6634.69575.7109 1.64537 1.1162 2.63996 1.1268.99459.0107 1.95267-.3742 2.6635-1.07l6.2534-6.12087c.2346-.22969.4218-.50336.5507-.80537s.197-.62646.2005-.95481c.0036-.32835-.0576-.65418-.18-.95888-.1224-.30471-.3037-.58232-.5334-.81698-.2297-.23467-.5033-.4218-.8053-.5507s-.6265-.19706-.9548-.20057c-.3284-.00352-.6542.05767-.9589.18008s-.5823.30363-.817.53332l-5.8062 5.68438c-.06031.057-.10866.1255-.14223.2014s-.05169.1577-.0533.2407.01332.1654.04392.2426c.03061.0771.07626.1474.13432.2067.05805.0593.12733.1065.2038.1387s.15859.0489.24158.0491.16518-.0162.24178-.0481c.0766-.032.14607-.0788.20436-.1379l5.80617-5.68317.8755.89318-5.80743 5.68319c-.17487.1772-.38328.3178-.61308.4136s-.47637.1449-.72534.1444-.49535-.0506-.72476-.1473c-.22941-.0968-.43725-.2382-.61141-.4161-.17415-.178-.31112-.3888-.40293-.6202-.0918-.2314-.1366-.4788-.13177-.7278.00483-.2489.05919-.4944.1599-.722.10071-.2277.24576-.4331.42668-.6041z"/></svg>