<svg fill="none" height="24" viewBox="0 0 24 24" width="24" xmlns="http://www.w3.org/2000/svg"><g fill="#606266"><path d="m12 1.5c.3978 0 .7794.15804 1.0607.43934s.4393.66284.4393 1.06066v1.5h-3v-1.5c0-.39782.158-.77936.4393-1.06066s.6629-.43934 1.0607-.43934z"/><path d="m6 18h12v-7.5c0-1.5913-.6321-3.11742-1.7574-4.24264-1.1252-1.12522-2.6513-1.75736-4.2426-1.75736s-3.11742.63214-4.24264 1.75736-1.75736 2.65134-1.75736 4.24264zm6-15c1.9891 0 3.8968.79018 5.3033 2.1967s2.1967 3.31418 2.1967 5.3033v9h-15v-9c0-1.98912.79018-3.89678 2.1967-5.3033s3.3142-2.1967 5.3033-2.1967z"/><path d="m2.25 18h19.5c.5 0 .75.25.75.75s-.25.75-.75.75h-19.5c-.5 0-.75-.25-.75-.75s.25-.75.75-.75zm8.25 3h3c0 .3978-.158.7794-.4393 1.0607s-.6629.4393-1.0607.4393-.7794-.158-1.0607-.4393-.4393-.6629-.4393-1.0607z"/></g></svg>