<svg height="24" viewBox="0 0 24 24" width="24" xmlns="http://www.w3.org/2000/svg"><g><path d="m3.75 19.38 2.661-2.13h12.339c.3978 0 .7794-.158 1.0607-.4393s.4393-.6629.4393-1.0607v-9.75c0-.39782-.158-.77936-.4393-1.06066s-.6629-.43934-1.0607-.43934h-13.5c-.39782 0-.77936.15804-1.06066.43934s-.43934.66284-.43934 1.06066zm3.1875-.63-3.4695 2.775c-.11028.0881-.24317.1432-.3834.1591-.14022.016-.2821-.008-.40931-.0691-.12722-.0611-.23461-.1569-.30984-.2763s-.11525-.2576-.11545-.3987v-14.94c0-.79565.31607-1.55871.87868-2.12132s1.32567-.87868 2.12132-.87868h13.5c.7956 0 1.5587.31607 2.1213.87868s.8787 1.32567.8787 2.12132v9.75c0 .7956-.3161 1.5587-.8787 2.1213s-1.3257.8787-2.1213.8787z"/><path d="m8.25 12h7.5c.5 0 .75.25.75.75s-.25.75-.75.75h-7.5c-.5 0-.75-.25-.75-.75s.25-.75.75-.75zm0-4.5h7.5c.5 0 .75.25.75.75s-.25.75-.75.75h-7.5c-.5 0-.75-.25-.75-.75s.25-.75.75-.75z"/></g></svg>