<svg fill="none" height="20" viewBox="0 0 20 20" width="20" xmlns="http://www.w3.org/2000/svg"><rect fill="#606266" height="20" rx="4" width="20"/><path d="m13.9375 5.35993-3.93754 3.9375-3.9375-3.9375c-.10434-.09366-.2215-.1405-.3515-.1405s-.24467.0495-.344.1485c-.09934.099-.14884.21367-.1485.344.00033.13034.04716.2475.1405.3515l3.9375 3.93747-3.9375 3.9375c-.13534.1354-.17967.2969-.133.4845.04666.1877.16133.3049.344.3515.18266.0467.34666.0024.492-.133l3.9375-3.9375 3.93754 3.9375c.1043.0937.2215.1405.3515.1405s.2446-.0495.344-.1485c.0993-.099.1488-.2136.1485-.344-.0004-.1303-.0472-.2475-.1405-.3515l-3.9375-3.9375 3.9375-3.93747c.1353-.13533.1796-.29683.133-.4845-.0467-.18766-.1639-.30483-.3515-.3515-.1877-.04666-.3492-.00233-.4845.133z" fill="#fefffc"/></svg>