<svg height="16" viewBox="0 0 16 16" width="16" xmlns="http://www.w3.org/2000/svg"><g><path d="m12 13c0 .5304-.2107 1.0391-.5858 1.4142s-.8838.5858-1.4142.5858h-7c-.53043 0-1.03914-.2107-1.41421-.5858-.37508-.3751-.58579-.8838-.58579-1.4142v-7c0-.53043.21071-1.03914.58579-1.41421.37507-.37508.88378-.58579 1.41421-.58579v1c-.26522 0-.51957.10536-.70711.29289-.18753.18754-.29289.44189-.29289.70711v7c0 .2652.10536.5196.29289.7071.18754.1875.44189.2929.70711.2929h7c.2652 0 .5196-.1054.7071-.2929s.2929-.4419.2929-.7071z"/><path d="m6 2c-.26522 0-.51957.10536-.70711.29289-.18753.18754-.29289.44189-.29289.70711v7c0 .2652.10536.5196.29289.7071.18754.1875.44189.2929.70711.2929h7c.2652 0 .5196-.1054.7071-.2929s.2929-.4419.2929-.7071v-7c0-.26522-.1054-.51957-.2929-.70711-.1875-.18753-.4419-.29289-.7071-.29289zm0-1h7c.5304 0 1.0391.21071 1.4142.58579.3751.37507.5858.88378.5858 1.41421v7c0 .5304-.2107 1.0391-.5858 1.4142s-.8838.5858-1.4142.5858h-7c-.53043 0-1.03914-.2107-1.41421-.5858-.37508-.3751-.58579-.8838-.58579-1.4142v-7c0-.53043.21071-1.03914.58579-1.41421.37507-.37508.88378-.58579 1.41421-.58579z"/></g></svg>