<svg fill="none" height="28" viewBox="0 0 28 28" width="28" xmlns="http://www.w3.org/2000/svg"><path d="m12.6665 20.666h2.6667v-5.3333h5.3333v-2.6667h-5.3333v-5.33332h-2.6667v5.33332h-5.33333v2.6667h5.33333zm1.3333 6.6667c-1.8444 0-3.5777-.3445-5.19996-1.0334-1.62222-.7111-3.03334-1.6666-4.23334-2.8666s-2.15555-2.6111-2.86666-4.2334c-.68889-1.6222-1.033336-3.3555-1.033336-5.2 0-1.8444.344446-3.5777 1.033336-5.19995.71111-1.62222 1.66666-3.03334 2.86666-4.23333 1.2-1.20001 2.61112-2.14445 4.23334-2.83334 1.62226-.71111 3.35556-1.066664 5.19996-1.066664 1.8445 0 3.5778.355554 5.2 1.066664 1.6223.68889 3.0334 1.63333 4.2334 2.83334 1.2 1.19999 2.1444 2.61111 2.8333 4.23333.7111 1.62225 1.0667 3.35555 1.0667 5.19995 0 1.8445-.3556 3.5778-1.0667 5.2-.6889 1.6223-1.6333 3.0334-2.8333 4.2334s-2.6111 2.1555-4.2334 2.8666c-1.6222.6889-3.3555 1.0334-5.2 1.0334zm0-2.6667c2.9778 0 5.5-1.0333 7.5667-3.1s3.1-4.5889 3.1-7.5667c0-2.9777-1.0333-5.49995-3.1-7.56662s-4.5889-3.1-7.5667-3.1c-2.9777 0-5.49996 1.03333-7.56663 3.1s-3.1 4.58892-3.1 7.56662c0 2.9778 1.03333 5.5 3.1 7.5667s4.58893 3.1 7.56663 3.1z" fill="#148751"/></svg>