<svg role="img" viewBox="0 0 40 40" xmlns="http://www.w3.org/2000/svg" id="Xrp--Streamline-Simple-Icons" height="40" width="40"><desc>Xrp Streamline Icon: https://streamlinehq.com</desc><title>XRP</title><path d="M9.2 4.925000000000001A5.868333333333333 5.868333333333333 0 0 0 3.3266666666666667 10.8v4.263333333333334A3.5333333333333337 3.5333333333333337 0 0 1 0 18.595000000000002l0.05 0.9366666666666668 -0.05 0.9350000000000002a3.5333333333333337 3.5333333333333337 0 0 1 3.3266666666666667 3.535v4.913333333333333a6.15 6.15 0 0 0 6.133333333333334 6.16v-1.8716666666666668a4.266666666666667 4.266666666666667 0 0 1 -4.261666666666667 -4.263333333333334v-4.9383333333333335a5.398333333333333 5.398333333333333 0 0 0 -2.3666666666666667 -4.47 5.433333333333334 5.433333333333334 0 0 0 2.3666666666666667 -4.47V10.8A4.0200000000000005 4.0200000000000005 0 0 1 9.2 6.796666666666668h0.7283333333333334V4.925000000000001zm20.89666666666667 0v1.8716666666666668h0.7283333333333334a3.983333333333334 3.983333333333334 0 0 1 3.976666666666667 4.001666666666667v4.263333333333334a5.433333333333334 5.433333333333334 0 0 0 2.3666666666666667 4.47 5.398333333333333 5.398333333333333 0 0 0 -2.3666666666666667 4.47v4.9383333333333335a4.266666666666667 4.266666666666667 0 0 1 -4.261666666666667 4.263333333333334v1.8716666666666668a6.15 6.15 0 0 0 6.133333333333334 -6.16V24A3.5333333333333337 3.5333333333333337 0 0 1 40 20.468333333333334l-0.05 -0.9366666666666668 0.05 -0.9350000000000002a3.5333333333333337 3.5333333333333337 0 0 1 -3.3266666666666667 -3.5333333333333337v-4.266666666666667a5.863333333333333 5.863333333333333 0 0 0 -5.848333333333334 -5.873333333333334zM10.421666666666667 12.463333333333333l5.796666666666667 5.431666666666667a5.655 5.655 0 0 0 7.588333333333334 0l5.796666666666667 -5.433333333333334h-2.7816666666666667l-4.416666666666667 4.1066666666666665a3.555 3.555 0 0 1 -4.8100000000000005 0L13.203333333333333 12.463333333333333zm9.343333333333334 8.14a5.6 5.6 0 0 0 -3.546666666666667 1.4766666666666668l-5.821666666666666 5.456666666666667h2.78l4.445 -4.158333333333334a3.555 3.555 0 0 1 4.808333333333334 0l4.416666666666667 4.158333333333334h2.783333333333333l-5.823333333333334 -5.456666666666667a5.6 5.6 0 0 0 -4.041666666666667 -1.4766666666666668z" fill="#000000" stroke-width="1.6667"></path></svg>