<svg fill="none" height="13" viewBox="0 0 13 13" width="13" xmlns="http://www.w3.org/2000/svg"><path d="m11 6.9995c0-.146.0468-.26583.1405-.3595s.2135-.1405.3595-.1405.2658.04683.3595.1405.1405.2135.1405.3595v5.5c0 .146-.0468.2658-.1405.3595s-.2135.1405-.3595.1405h-11c-.146 0-.265833-.0468-.3595-.1405-.0936666-.0937-.1405-.2135-.1405-.3595v-11c0-.146.0468334-.26583.1405-.3595.093667-.09367.2135-.1405.3595-.1405h5.5c.146 0 .26583.04683.3595.1405s.1405.2135.1405.3595-.04683.26583-.1405.3595-.2135.1405-.3595.1405h-5v10h10zm-5.656.6565.828-.1095 5.0625-5.078c.1353-.13533.1797-.29417.133-.4765s-.1638-.2995-.3515-.3515-.3492-.01033-.4845.125l-5.078 5.0625zm6.5935-6.594c.2917.29167.4375.64317.4375 1.0545s-.1458.76817-.4375 1.0705l-5.172 5.172c-.08333.08333-.18233.1355-.297.1565l-1.6405.2345c-.16667.021-.30733-.0285-.422-.1485s-.1615-.26317-.1405-.4295l.2345-1.6405c.01033-.11467.05717-.2085.1405-.2815l5.1875-5.1875c.302-.291667.6535-.4375 1.0545-.4375s.7525.145833 1.0545.4375z" fill="currentColor"/></svg>