<svg height="18" viewBox="0 0 18 18" width="18" xmlns="http://www.w3.org/2000/svg"><g stroke-width=".5625"><path d="m16.875 6.1875v-3.375h-3.375v1.125h-5.625v-1.6875a1.12640625 1.12640625 0 0 0 -1.125-1.125h-4.5a1.12640625 1.12640625 0 0 0 -1.125 1.125v4.5a1.12640625 1.12640625 0 0 0 1.125 1.125h4.5a1.12640625 1.12640625 0 0 0 1.125-1.125v-1.6875a1.68935625 1.68935625 0 0 1 1.6875 1.6875v5.0625h-3.375v-1.125h-3.375v3.375h3.375v-1.125h3.375v1.125a1.12640625 1.12640625 0 0 0 1.125 1.125h2.8125v1.125h3.375v-3.375h-3.375v1.125h-2.8125v-3.9375h2.8125v1.125h3.375v-3.375h-3.375v1.125h-2.8125v-2.25a2.78555625 2.78555625 0 0 0 -.5767875-1.6875h3.3892875v1.125zm-14.625.5625v-4.5h4.5v4.5zm2.8125 6.1875h-1.125v-1.125h1.125zm9.5625 1.125h1.125v1.125h-1.125zm0-5.0625h1.125v1.125h-1.125zm0-5.0625h1.125v1.125h-1.125z"/><path d="m0 0h18v18h-18z" fill="none"/></g></svg>