<svg fill="none" height="32" viewBox="0 0 24 32" width="24" xmlns="http://www.w3.org/2000/svg"><path clip-rule="evenodd" d="m23.4766 9.22656c0 .01563-.0079.03125-.0079.04688v21.30466c0 .5781-.4687 1.0469-1.0468 1.0469h-20.84378c-.57812 0-1.054682-.4688-1.054682-1.0469v-29.15622c0-.57813.46875-1.04688 1.054682-1.04688h13.02348c.0234 0 .0468.007813.0625.015625.0234 0 .0468.007813.0703.015625.0859.023438.1718.0625.2344.125l8.2812 8.27344c.0156.00781.0234.03125.0391.04687.0156.01563.0312.03125.0468.05469.0782.08594.1407.19531.1407.32031zm-21.90629-7.85156v29.1953l20.85159.0078v-20.85935h-7.8125c-.2891 0-.5313-.20313-.5313-.49219v-7.85156zm13.55469.78125v6.55469h6.5625z" fill="#fff" fill-rule="evenodd"/></svg>