<svg height="16" viewBox="0 0 16 16" width="16" xmlns="http://www.w3.org/2000/svg">
    <path d="m15.22 2.38666667a1.5 1.5 0 0 0 -1.22-2.38666667h-12a1.50666667 1.50666667 0 0 0 -1.33333333.82666667 1.48 1.48 0 0 0 .12 1.54666667l4.73333333 6.78v5.33333333a1.50666667 1.50666667 0 0 0 1.62666667 1.51333333 1.94666667 1.94666667 0 0 0 1.04666667-.27333333l1.64666667-1.02666667a1.51333333 1.51333333 0 0 0 .6-1.2v-4.34zm-6.29333333 6a.82.82 0 0 0 -.15333333.48v4.32a.33333333.33333333 0 0 1 -.16.28666667l-.94.55333333a.33333333.33333333 0 0 1 -.33333333 0 .33333333.33333333 0 0 1 -.16666667-.28666667v-4.84666667a.82666667.82666667 0 0 0 -.14666667-.47333333l-4.36-6.22666667a.34.34 0 0 1 0-.34666667.33333333.33333333 0 0 1 .3-.18h10.07333333a.33333333.33333333 0 0 1 .3.18.34.34 0 0 1 0 .34666667z" fill="currentColor"/>
</svg>