<svg viewBox="0 0 24 24" xmlns="http://www.w3.org/2000/svg"><path d="m12 .296875c-6.63 0-11.99999825 5.369995-11.99999825 12.000025-.00136106 2.5191.79057625 4.9747 2.26345825 7.0184 1.47288 2.0437 3.55192 3.5717 5.94214 4.3672.6.1044.8244-.2556.8244-.5712 0-.2844-.0156-1.2288-.0156-2.2344-3.0144.5556-3.7944-.7344-4.0344-1.41-.1356-.3456-.72-1.41-1.23-1.6956-.42-.2244-1.02-.78-.0156-.7944.9456-.0156 1.62.87 1.8456 1.23 1.08 1.8144 2.8056 1.3044 3.4944.99.1056-.78.42-1.3044.7656-1.6044-2.67-.3-5.46-1.3356-5.46-5.9256 0-1.3056.4644-2.38443 1.23-3.22563-.12-.3-.54-1.53.12-3.18 0 0 1.0044-.3144 3.3 1.2312.9769-.27112 1.9862-.40758 3-.4056 1.02 0 2.04.1344 3 .4044 2.2944-1.56 3.3-1.2288 3.3-1.2288.66 1.65.24 2.88.12 3.18.7644.84 1.23 1.90443 1.23 3.22443 0 4.6056-2.8044 5.6256-5.4744 5.9256.4344.3744.81 1.0944.81 2.22 0 1.6044-.0156 2.8944-.0156 3.3 0 .3144.2256.6888.8256.5688 2.382-.8043 4.4519-2.3352 5.9183-4.3774 1.4664-2.0423 2.2554-4.4929 2.2561-7.007 0-6.63003-5.37-12.000025-12-12.000025z"/></svg>