<svg height="18" viewBox="0 0 18 18" width="18" xmlns="http://www.w3.org/2000/svg"><path d="m15.33877031 11.81940469c-.63775547-.00048516-1.25067656.24720469-1.70902969.69065859l-2.49129844-1.93807266c.21275859-.37108828.32453438-.79146563.32418281-1.21921875-.00003516-.1477125-.01330313-.29512969-.03964219-.44047266l1.71343125-.56820938c.85355859 1.70147109 3.22892578 1.84088672 4.27566094.25095234 1.04674219-1.58993438-.02020781-3.716775-1.92050156-3.82830469-1.59880781-.09383906-2.8636875 1.33371563-2.57803594 2.90960156l-1.71519609.57084609c-.41788828-.83344922-1.26999844-1.36005469-2.20234922-1.36105313-.22642734-.00010547-.45175781.03132422-.66951563.09338203l-.83689453-1.882575c1.60653516-1.01219766 1.51487578-3.38395078-.16498125-4.26915-1.67986405-.88519216-3.68803124.38006019-3.61470233 2.27745706.05120859 1.32512344 1.140975 2.37261094 2.46708281 2.37138047.22642734.0001125.45175781-.03131719.66951563-.09338203l.83689453 1.882575c-1.17187734.73496953-1.5085125 2.29080937-.74527734 3.44448281l-2.69920548 2.3961586c-1.45020234-1.22572969-3.68346797-.42192422-4.01988516 1.44685547-.33641016 1.86877969 1.47634453 3.40093828 3.26296406 2.75789531 1.50151641-.54043594 2.10241406-2.34284766 1.22558203-3.67619063l2.69568281-2.39615859c.96411797.81621563 2.38977422.76938047 3.29823984-.10835156l2.49130547 1.93806563c-.93720234 1.65141562.26474766 3.69809297 2.16351563 3.68403047 1.89876094-.0140625 3.07026563-2.07833203 2.1087-3.71567109-.44282813-.75404531-1.2517875-1.21727109-2.12624297-1.21753125zm0-6.34277813c1.35629297 0 2.20398047 1.4682375 1.52583047 2.64282187-.67814297 1.17459141-2.37351797 1.17459141-3.05166797 0-.15463828-.26783438-.23604609-.57166172-.23604609-.88093828 0-.97308984.78879375-1.76192578 1.76188359-1.76188359zm-10.92367265-2.46663281c0-1.3563 1.4682375-2.2039875 2.64282187-1.5258375 1.17459141.67815 1.17459141 2.373525 0 3.05166797-.26781328.15462422-.57168984.23603906-.88093828.23605313-.97308984.00004219-1.76188359-.78879375-1.76188359-1.76188359zm-1.7618836 13.74268359c-1.35629297 0-2.20398047-1.4682375-1.52583047-2.64282891.67814297-1.17458438 2.37351797-1.17458438 3.05166797 0 .15463828.26784141.23604609.57166875.23604609.88094531 0 .97306172-.78882188 1.76188359-1.76188359 1.76188359zm6.34277813-5.63802891c-1.3563 0-2.20398047-1.46823047-1.5258375-2.64282187.67815-1.17458438 2.373525-1.17458438 3.051675 0 .15463125.26784141.23604609.57166875.23604609.88094531 0 .97305469-.78882188 1.76187656-1.76188359 1.76187656zm6.34277813 4.93327266c-1.3563 0-2.2039875-1.4682375-1.5258375-2.64282187.67815-1.17459141 2.37351797-1.17459141 3.05166797 0 .15463828.26784141.23604609.57166172.23604609.88093828 0 .97306172-.78881484 1.76188359-1.76187656 1.76188359z" stroke-width=".0703"/></svg>