<svg height="20" viewBox="0 0 24 24" width="20" xmlns="http://www.w3.org/2000/svg"><path d="m20.58 10.5h-14.91l-2.25 9h14.91zm-1.08-1.5v-1.5h-8.115l-3.006-3h-5.379v10.5l1.3575-5.4315c.04049-.16232.13408-.30645.2659-.40946s.2943-.15899.4616-.15904zm-.585 12h-16.665c-.19891 0-.38968-.079-.53033-.2197-.14065-.1406-.21967-.3314-.21967-.5303v-16.5c0-.19891.07902-.38968.21967-.53033s.33142-.21967.53033-.21967h6.747l3.009 3h8.244c.1989 0 .3897.07902.5303.21967.1407.14065.2197.33142.2197.53033v2.25h.54c.1139.00003.2263.02602.3287.07598s.1921.12259.2622.21238c.0701.08978.1189.19436.1425.3058.0237.11144.0217.2268-.0059.33734l-2.625 10.5c-.0405.1623-.1341.3065-.2659.4095s-.2943.159-.4616.159z"/></svg>