<svg height="20" viewBox="0 0 24 25" width="20" xmlns="http://www.w3.org/2000/svg"><path d="m4.5 9.87683v11.29797h15v-11.29797l-7.5-6.249zm-1.23-.927 8.25-6.8745c.1348-.11225.3046-.17372.48-.17372s.3452.06147.48.17372l8.25 6.8745c.0845.07036.1524.15842.1991.25796.0467.09953.0709.20811.0709.31804v12.39897c0 .1989-.079.3897-.2197.5304-.1406.1406-.3314.2196-.5303.2196h-16.5c-.19891 0-.38968-.079-.53033-.2196-.14065-.1407-.21967-.3315-.21967-.5304v-12.39897c.00004-.10993.02425-.21851.07091-.31804.04665-.09954.11462-.1876.19909-.25796z"/></svg>