<svg fill="none" height="40" viewBox="0 0 40 40" width="40" xmlns="http://www.w3.org/2000/svg"><path d="m3.75 35c-.33152 0-.64946-.1317-.88388-.3661s-.36612-.5524-.36612-.8839v-27.5c0-.33152.1317-.64946.36612-.88388s.55236-.36612.88388-.36612h32.5c.3315 0 .6495.1317.8839.36612s.3661.55236.3661.88388v27.5c0 .3315-.1317.6495-.3661.8839s-.5524.3661-.8839.3661zm12.325-8.925-2.6925-2.6925c-.2344-.2343-.5523-.366-.8838-.366-.3314 0-.6493.1317-.8837.366l-6.615 6.62h30.4175l-9.4575-11.35c-.1173-.1411-.2642-.2547-.4304-.3326-.1661-.0779-.3473-.1183-.5308-.1183-.1836 0-.3648.0404-.5309.1183-.1662.0779-.3131.1915-.4304.3326l-6.1175 7.34c-.1113.1335-.2492.2423-.4049.3195s-.3258.1211-.4994.1289c-.1736.0077-.3469-.0208-.5089-.0838s-.309-.1591-.4318-.2821zm-6.075-11.075c.0002.4926.0974.9804.286 1.4354.1887.4551.4651.8685.8136 1.2168.3485.3482.7621.6244 1.2173.8127.4551.1884.943.2853 1.4356.2851s.9804-.0974 1.4354-.286c.4551-.1887.8685-.4651 1.2168-.8136.3482-.3485.6244-.7621.8127-1.2173.1884-.4551.2853-.943.2851-1.4356-.0003-.9949-.3959-1.9489-1.0996-2.6522-.7037-.7032-1.658-1.0981-2.6529-1.0978s-1.9489.3959-2.6522 1.0996c-.7032.7037-1.09813 1.658-1.0978 2.6529z" fill="#909399"/></svg>