<svg fill="none" height="14" viewBox="0 0 14 14" width="14" xmlns="http://www.w3.org/2000/svg"><path d="m6.60625 9.91666667h.875v-3.5h-.875zm.39345833-4.57916667c.13629583 0 .25062917-.0447125.343-.13416667s.13854167-.2002875.13854167-.3325c0-.14049583-.04608333-.2582125-.13825-.35320833-.09216667-.09508333-.2064125-.142625-.34270833-.142625s-.25062917.04754167-.343.142625c-.09237083.09499583-.13854167.2127125-.13854167.35320833 0 .1322125.04608333.24304583.13825.3325s.2064125.13416667.34270833.13416667zm.00422917 7.49583333c-.80441667 0-1.56032917-.153125-2.26770833-.459375-.70749583-.30625-1.32615-.72429583-1.85602083-1.25416667-.52986208-.52987083-.94791667-1.148875-1.25416667-1.85704167-.30625-.70816666-.459375-1.46483749-.459375-2.27004166s.153125-1.561875.459375-2.27004167.72430458-1.32475 1.25416667-1.84975c.52987083-.525 1.148875-.940625 1.85704167-1.246875.70816666-.30624999 1.46483749-.45937499 2.27004166-.45937499s1.561875.153125 2.27004167.459375 1.32475.721875 1.84975 1.246875.940625 1.14237083 1.246875 1.85208333c.30624999.7097125.45937499 1.46673333.45937499 2.2710625 0 .80441667-.153125 1.56032917-.459375 2.26770833-.30625.70749583-.721875 1.325275-1.246875 1.85339583-.525.52800417-1.14237083.94607917-1.85208333 1.25416667-.7097125.308-1.46673333.462-2.2710625.462zm.00335417-.875c1.37570417 0 2.54479167-.48367083 3.50729167-1.45104167.9625-.96737083 1.44375-2.13887917 1.44375-3.51458333s-.48031667-2.54479167-1.44097917-3.50729167c-.9606625-.96249999-2.13310417-1.44374999-3.51735417-1.44374999-1.37083333 0-2.53992083.48032542-3.50729167 1.44097917-.96736208.96066249-1.45104166 2.13310416-1.45104166 3.51735416 0 1.37083333.48367958 2.53992083 1.45104167 3.50729167.96737083.96737083 2.13887916 1.45104166 3.51458333 1.45104166z" fill="currentColor" stroke-width=".2917"/></svg>