<svg fill="none" height="18" viewBox="0 0 18 18" width="18" xmlns="http://www.w3.org/2000/svg"><path d="m13.7729 11.6527-1.0605-1.0605 2.121-2.12248c1.758-1.7565 1.995-4.368.531-5.8335-1.4655-1.464-4.077-1.227-5.83504.531l-2.1195 2.121-1.0605-1.0605 2.121-2.121c2.34454-2.343004 5.90554-2.580004 7.95604-.531 2.0505 2.0505 1.812 5.6115-.531 7.956l-2.121 2.12098zm-2.121 2.121-2.12104 2.121c-2.3445 2.343-5.9055 2.58-7.956.531-2.050502-2.0505-1.812002-5.6115.531-7.95598l2.121-2.121 1.0605 1.0605-2.121 2.1225c-1.758 1.75648-1.995 4.36798-.531 5.83348 1.4655 1.464 4.077 1.227 5.835-.531l2.12104-2.121zm0-8.48548 1.0605 1.0605-6.36454 6.36448-1.0605-1.0605z" fill="#606266"/></svg>