<svg fill="none" height="20" viewBox="0 0 20 20" width="20" xmlns="http://www.w3.org/2000/svg"><g fill="#148751"><path d="m10 1.25c.3315 0 .6495.1317.8839.36612s.3661.55236.3661.88388v1.25h-2.5v-1.25c0-.33152.1317-.64946.36612-.88388s.55236-.36612.88388-.36612z"/><path d="m5 15h10v-6.25c0-1.32608-.5268-2.59785-1.4645-3.53553-.9376-.93769-2.2094-1.46447-3.5355-1.46447-1.32608 0-2.59785.52678-3.53553 1.46447-.93769.93768-1.46447 2.20945-1.46447 3.53553zm5-12.5c1.6576 0 3.2473.65848 4.4194 1.83058 1.1721 1.17211 1.8306 2.76182 1.8306 4.41942v7.5h-12.5v-7.5c0-1.6576.65848-3.24731 1.83058-4.41942 1.17211-1.1721 2.76182-1.83058 4.41942-1.83058z"/><path d="m1.875 15h16.25c.4167 0 .625.2083.625.625s-.2083.625-.625.625h-16.25c-.41667 0-.625-.2083-.625-.625s.20833-.625.625-.625zm6.875 2.5h2.5c0 .3315-.1317.6495-.3661.8839s-.5524.3661-.8839.3661c-.33152 0-.64946-.1317-.88388-.3661s-.36612-.5524-.36612-.8839z"/></g></svg>