<svg fill="none" height="22" viewBox="0 0 22 22" width="22" xmlns="http://www.w3.org/2000/svg"><g fill="#0d8484"><path clip-rule="evenodd" d="m11.4121 21.709c5.799 0 10.5-4.701 10.5-10.5 0-5.79901-4.701-10.500016-10.5-10.500016-5.79898 0-10.499991 4.701006-10.499991 10.500016 0 5.799 4.701011 10.5 10.499991 10.5zm0-1.5c4.9706 0 9-4.0295 9-9 0-4.97058-4.0294-9.00002-9-9.00002-4.97055 0-8.99999 4.02944-8.99999 9.00002 0 4.9705 4.02944 9 8.99999 9z" fill-rule="evenodd"/><path d="m12.2105 16.9036c-.2177.2178-.5081.3266-.7984.3266s-.5806-.127-.7984-.3266c-.2177-.2177-.3266-.5081-.3266-.7984 0-.3084.127-.5806.3266-.7984.2178-.2177.5081-.3266.7984-.3266s.5807.127.7984.3266c.2177.2178.3266.5081.3266.7984 0 .3085-.1089.5988-.3266.7984z"/><path d="m12.8821 11.704c-.21.075-.39.225-.525.405-.135.195-.195.42-.195.645 0 0 0 .51-.135.705-.15.18-.36.33-.615.33s-.465-.135-.615-.33c-.18-.24-.15-.675-.15-.675 0-.54.165-1.08.465-1.515s.72-.765 1.215-.96c.795-.3 1.32-.97502 1.32-1.71002 0-1.035-1.005-1.875-2.25-1.875-1.14 0-2.08499.705-2.23499 1.62 0 .03-.075.52501-.18.63-.09.135-.345.24-.57.24s-.42-.105-.555-.255c-.105-.12-.18-.28499-.195-.46499 0-.03001.015-.24001.015-.315.105-.765.48-1.47001 1.11-2.01001.705-.615 1.63499-.96 2.60999-.96s1.905.345 2.61.96c.735.645 1.14 1.5 1.125 2.415.03 1.365-.87 2.58002-2.25 3.12002z"/></g></svg>