<svg height="22" viewBox="0 0 22 22" width="22" xmlns="http://www.w3.org/2000/svg"><path clip-rule="evenodd" d="m21.7071.292921c.2235.223484.3191.526429.2868.817889-.0091.08171-.0282.16251-.0573.2404l-6.9927 19.97919c-.1355.387-.4935.6521-.9031.6688-.4097.0167-.7881-.2184-.9546-.593l-3.8438-8.6486-8.648533-3.84376c-.374681-.16653-.6097445-.5449-.59303069-.95458.01671379-.40967.28181769-.76764.66881869-.90309l19.979145-6.9926918c.0784-.0293424.1597-.0485078.2419-.05749625.0604-.00664388.121-.00771973.181-.00339599.2315.01654294.4584.11332104.6354.29033504zm-4.5128 3.098579-13.48322 4.71913 6.06746 2.69667zm-6.0015 8.83 7.4157-7.41579-4.7191 13.48329z" fill-rule="evenodd"/></svg>