<svg fill="none" height="24" viewBox="0 0 24 24" width="24" xmlns="http://www.w3.org/2000/svg"><path d="m0 4.5c0-.79565.316071-1.55871.87868-2.12132.56261-.56261 1.32567-.87868 2.12132-.87868h18c.7957 0 1.5587.31607 2.1213.87868s.8787 1.32567.8787 2.12132v15c0 .7957-.3161 1.5587-.8787 2.1213s-1.3256.8787-2.1213.8787h-18c-.79565 0-1.55871-.3161-2.12132-.8787-.562609-.5626-.87868-1.3256-.87868-2.1213zm11.25-1.5v18h9.75c.3978 0 .7794-.158 1.0607-.4393s.4393-.6629.4393-1.0607v-15c0-.39782-.158-.77936-.4393-1.06066s-.6629-.43934-1.0607-.43934zm0 0h-8.25c-.39782 0-.77936.15804-1.06066.43934s-.43934.66284-.43934 1.06066v15c0 .3978.15804.7794.43934 1.0607s.66284.4393 1.06066.4393h8.25z" fill="#606266"/></svg>