<svg xmlns="http://www.w3.org/2000/svg" fill="none" viewBox="-0.645 -0.645 18 18" id="Customer-Support-1--Streamline-Core" height="18" width="18">
    <desc>
        Customer Support 1 Streamline Icon: https://streamlinehq.com
    </desc>
    <g id="customer-support-1--customer-headset-help-microphone-phone-support">
        <path id="Vector" stroke="#000000" stroke-linecap="round" stroke-linejoin="round" d="M3.5807142857142864 8.355023871428573v-3.1390928571428574c0.009321792857142859 -0.6170406214285715 0.14030432142857144 -1.2261678642857143 0.3854519571428572 -1.7925055714285716 0.24513570000000004 -0.5663257714285715 0.5996264142857144 -1.07871405 1.0431336857142859 -1.5078149142857145 0.4435072714285715 -0.4290889285714286 0.9673299642857144 -0.7664578607142859 1.5414497571428574 -0.9927625842857144C7.124857542857144 0.6965444142857143 7.737995185714286 0.5857487592857143 8.355 0.5968107792857145 8.972004814285716 0.5857487592857143 9.585142457142858 0.6965444142857143 10.159250314285716 0.9228479442857145c0.5741197928571429 0.22630472357142858 1.0979424857142859 0.5636736557142858 1.5414497571428574 0.9927625842857144 0.4435311428571429 0.4291008642857143 0.7980218571428572 0.9414891428571429 1.0431814285714287 1.5078149142857145 0.24504021428571432 0.5663377071428572 0.37609435714285716 1.17546495 0.38540421428571436 1.7925055714285716v3.1390928571428574" stroke-width="1.29"></path>
        <path id="Vector_2" stroke="#000000" stroke-linecap="round" stroke-linejoin="round" d="M1.7903571428571432 6.564642857142858h1.1935714285714287c0.15827950714285716 0 0.3100779214285715 0.06287734285714286 0.4219871785714286 0.17479853571428575C3.5178369428571434 6.851350650000001 3.5807142857142864 7.003149064285716 3.5807142857142864 7.161428571428573v3.5807142857142864c0 0.15827950714285716 -0.06287734285714286 0.3100779214285715 -0.17479853571428575 0.4219871785714286C3.2940064928571435 11.27605122857143 3.142208078571429 11.338928571428573 2.9839285714285717 11.338928571428573h-1.1935714285714287c-0.3165590142857143 0 -0.6201439071428572 -0.12575468571428572 -0.8439827121428572 -0.34958513571428573C0.7225368192857144 10.765501050000001 0.5967857142857144 10.461916157142857 0.5967857142857144 10.145357142857144v-2.3871428571428575c0 -0.3165590142857143 0.12575110500000003 -0.6201439071428572 0.3495887164285715 -0.843986292857143C1.1702132357142858 6.690397542857144 1.4737981285714288 6.564642857142858 1.7903571428571432 6.564642857142858v0Z" stroke-width="1.29"></path>
        <path id="Vector_3" stroke="#000000" stroke-linecap="round" stroke-linejoin="round" d="M14.91964285714286 11.338928571428573h-1.1935714285714287c-0.15826757142857145 0 -0.31008985714285714 -0.06287734285714286 -0.4220468571428572 -0.17479853571428575C13.19218692857143 11.052220778571431 13.129285714285716 10.900422364285715 13.129285714285716 10.74214285714286V7.161428571428573c0 -0.15827950714285716 0.0629012142857143 -0.3100779214285715 0.17473885714285717 -0.4219871785714286 0.11195700000000001 -0.11192119285714287 0.26377928571428577 -0.17479853571428575 0.4220468571428572 -0.17479853571428575h1.1935714285714287c0.3165351428571429 0 0.6201797142857143 0.12575468571428572 0.8439743571428572 0.34958513571428573 0.2237946428571429 0.22384238571428575 0.3495970714285715 0.5274272785714287 0.3495970714285715 0.843986292857143v2.3871428571428575c0 0.3165590142857143 -0.1258024285714286 0.6201439071428572 -0.3495970714285715 0.843986292857143 -0.2237946428571429 0.22383045000000004 -0.5274392142857144 0.34958513571428573 -0.8439743571428572 0.34958513571428573v0Z" stroke-width="1.29"></path>
        <path id="Vector_4" stroke="#000000" stroke-linecap="round" stroke-linejoin="round" d="M10.74214285714286 14.621250000000002c0.6331060928571429 0 1.2402400714285715 -0.25148550000000003 1.6879487142857144 -0.699194142857143S13.129285714285716 12.86717742857143 13.129285714285716 12.234107142857145V9.54857142857143" stroke-width="1.29"></path>
        <path id="Vector_5" stroke="#000000" stroke-linecap="round" stroke-linejoin="round" d="M10.74214285714286 14.621250000000002c0 0.39566892857142866 -0.15719335714285718 0.7752246428571429 -0.4369903714285715 1.0549977857142858 -0.2797970142857143 0.2797731428571429 -0.6592811142857143 0.43696650000000004 -1.0549739142857144 0.43696650000000004h-1.7903571428571432c-0.3956928 0 -0.7751769000000002 -0.15719335714285718 -1.0549739142857144 -0.43696650000000004C6.125050500000001 15.396474642857145 5.967857142857143 15.01691892857143 5.967857142857143 14.621250000000002s0.15719335714285718 -0.7752246428571429 0.4369903714285715 -1.0549977857142858C6.684644528571429 13.286479071428573 7.064128628571429 13.129285714285716 7.45982142857143 13.129285714285716h1.7903571428571432c0.3956928 0 0.7751769000000002 0.15719335714285718 1.0549739142857144 0.43696650000000004 0.2797970142857143 0.2797731428571429 0.4369903714285715 0.6593288571428573 0.4369903714285715 1.0549977857142858Z" stroke-width="1.29"></path>
    </g>
</svg>