<svg fill="none" height="18" viewBox="-.645 -.645 18 18" width="18" xmlns="http://www.w3.org/2000/svg"><g stroke="#000" stroke-linecap="round" stroke-linejoin="round" stroke-width="1.29"><path d="m3.58071429 8.35502387v-3.13909286c.00932179-.61704062.14030432-1.22616786.38545196-1.79250557.2451357-.56632577.59962641-1.07871405 1.04313369-1.50781491.44350727-.42908893.96732996-.76645786 1.54144976-.99276258.57410784-.22630354 1.18724549-.33709919 1.8042503-.32603717.61700481-.01106202 1.23014246.09973363 1.80425031.32603716.57411979.22630472 1.09794249.56367366 1.54144976.99276258.44353114.42910086.79802186.94148914 1.04318143 1.50781491.24504021.56633771.37609436 1.17546495.38540421 1.79250557v3.13909286"/><path d="m1.79035714 6.56464286h1.19357143c.15827951 0 .31007792.06287734.42198718.17479854.11192119.11190925.17479854.26370766.17479854.42198717v3.58071429c0 .15827951-.06287734.31007792-.17479854.42198718-.11190926.11192119-.26370767.17479853-.42198718.17479853h-1.19357143c-.31655901 0-.62014391-.12575469-.84398271-.34958514-.22383761-.22384238-.34958872-.52742727-.34958872-.84398629v-2.38714286c0-.31655901.12575111-.62014391.34958872-.84398629.22383881-.22383045.5274237-.34958513.84398271-.34958513z"/><path d="m14.91964286 11.33892857h-1.19357143c-.15826757 0-.31008986-.06287734-.42204686-.17479854-.11183764-.11190925-.17473886-.26370767-.17473886-.42198717v-3.58071429c0-.15827951.06290121-.31007792.17473886-.42198718.111957-.11192119.26377929-.17479854.42204686-.17479854h1.19357143c.31653514 0 .62017971.12575469.84397436.34958514.22379464.22384239.34959707.52742728.34959707.84398629v2.38714286c0 .31655901-.12580243.62014391-.34959707.84398629-.22379464.22383045-.52743921.34958514-.84397436.34958514z"/><path d="m10.74214286 14.62125c.63310609 0 1.24024007-.2514855 1.68794871-.69919414s.69919414-1.05487843.69919414-1.68794872v-2.68553571"/><path d="m10.74214286 14.62125c0 .39566893-.15719336.77522464-.43699037 1.05499779-.27979701.27977314-.65928111.4369665-1.05497391.4369665h-1.79035714c-.3956928 0-.7751769-.15719336-1.05497391-.4369665-.27979703-.27977315-.43699039-.65932886-.43699039-1.05499779s.15719336-.77522464.43699037-1.05499779c.27979702-.27977314.65928112-.4369665 1.05497392-.4369665h1.79035714c.3956928 0 .7751769.15719336 1.05497391.4369665s.43699037.65932886.43699037 1.05499779z"/></g></svg>