<svg width="14" height="4" viewBox="0 0 14 4" fill="none" xmlns="http://www.w3.org/2000/svg">
    <path d="M1.75 0C2.25 0.0103333 2.664 0.179667 2.992 0.508C3.32 0.836333 3.48933 1.25033 3.5 1.75C3.48967 2.25 3.32033 2.664 2.992 2.992C2.66367 3.32 2.24967 3.48933 1.75 3.5C1.25 3.48967 0.836 3.32033 0.508 2.992C0.18 2.66367 0.0106667 2.24967 0 1.75C0.0103333 1.25 0.179667 0.836 0.508 0.508C0.836333 0.18 1.25033 0.0106667 1.75 0ZM7 0C7.5 0.0103333 7.914 0.179667 8.242 0.508C8.57 0.836333 8.73933 1.25033 8.75 1.75C8.73967 2.25 8.57033 2.664 8.242 2.992C7.91367 3.32 7.49967 3.48933 7 3.5C6.5 3.48967 6.086 3.32033 5.758 2.992C5.43 2.66367 5.26067 2.24967 5.25 1.75C5.26033 1.25 5.42967 0.836 5.758 0.508C6.08633 0.18 6.50033 0.0106667 7 0ZM12.25 0C12.75 0.0103333 13.164 0.179667 13.492 0.508C13.82 0.836333 13.9893 1.25033 14 1.75C13.9897 2.25 13.8203 2.664 13.492 2.992C13.1637 3.32 12.7497 3.48933 12.25 3.5C11.75 3.48967 11.336 3.32033 11.008 2.992C10.68 2.66367 10.5107 2.24967 10.5 1.75C10.5103 1.25 10.6797 0.836 11.008 0.508C11.3363 0.18 11.7503 0.0106667 12.25 0Z" fill="#606266"/>
</svg>
