<svg fill="none" height="16" viewBox="0 0 16 16" width="16" xmlns="http://www.w3.org/2000/svg" xmlns:xlink="http://www.w3.org/1999/xlink"><clipPath id="a"><path d="m0 0h16v16h-16z"/></clipPath><g clip-path="url(#a)" stroke="#606266" stroke-linecap="round"><path d="m11.5465 14.7622h-9.6843c-.25937 0-.46962-.2102-.46962-.4696v-7.67077c0-.25937.21025-.46962.46962-.46962h2.16632c.54987 0 1.05943-.28856 1.34237-.76006l2.1215-3.53588c.45781-.763 1.536-.8355 2.09188-.14069.26193.32744.34643.76275.22587 1.16444l-.80025 2.66756c-.09044.30138.13525.60463.44981.60463h3.5811c1.0322 0 1.7818.9815 1.5103 1.97731l-1.4943 5.47908c-.1858.6812-.8044 1.1536-1.5103 1.1536z"/><path d="m4.13232 14.7624v-8.61006" stroke-linejoin="round"/></g></svg>