<svg xmlns="http://www.w3.org/2000/svg" fill="none" viewBox="0 0 18 18"
     id="Slide-Library-Fill--Streamline-Rounded-Fill-Material" height="18" width="18">
    <desc>
        Slide Library Fill Streamline Icon: https://streamlinehq.com
    </desc>
    <path fill="currentColor"
          d="M2.8125 14.9997c-0.36087375 0 -0.66987375 -0.128475 -0.927 -0.3855C1.62850125 14.3571 1.5 14.048099999999998 1.5 13.6872v-7.875c0 -0.159375 0.05425125 -0.2929875 0.16275 -0.400875 0.108375 -0.1077375 0.24274874999999999 -0.161625 0.40312499999999996 -0.161625 0.16024875 0 0.29350125 0.0538875 0.39975000000000005 0.161625 0.10624875 0.1078875 0.159375 0.2415 0.159375 0.400875v8.0625h10.3125c0.159375 0 0.2929875 0.0542625 0.400875 0.16275 0.1077375 0.108375 0.161625 0.2427375 0.161625 0.40312499999999996 0 0.1602375 -0.0538875 0.29351249999999995 -0.161625 0.39975000000000005 -0.1078875 0.106275 -0.2415 0.159375 -0.400875 0.159375h-10.125Zm3 -3c-0.36086250000000003 0 -0.6698625 -0.128475 -0.927 -0.3855 -0.25698750000000004 -0.2571 -0.3855 -0.5661 -0.3855 -0.927v-6.375c0 -0.360975 0.1285125 -0.66999375 0.3855 -0.9269924999999999 0.2571375 -0.25699875 0.5661375 -0.3855 0.927 -0.3855h5.4c0.159375 0 0.2929875 0.054247500000000004 0.400875 0.16275 0.1077375 0.108375 0.161625 0.24274874999999999 0.161625 0.40312499999999996 0 0.16024875 -0.0538875 0.293505 -0.161625 0.3997425 -0.1078875 0.106275 -0.2415 0.159375 -0.400875 0.159375H5.625v6.75h9.75v-5.5875c0 -0.159375 0.0542625 -0.2929875 0.16275 -0.400875 0.108375 -0.1077375 0.2427375 -0.161625 0.40312499999999996 -0.161625 0.1602375 0 0.29351249999999995 0.0538875 0.39975000000000005 0.161625 0.1062375 0.1078875 0.159375 0.2415 0.159375 0.400875v5.4c0 0.3609 -0.1285125 0.6698999999999999 -0.3855 0.927 -0.25698750000000004 0.257025 -0.5659875000000001 0.3855 -0.927 0.3855h-9.375Zm4.306875 -3.1687499999999997c-0.2087625 0 -0.406875 -0.035925 -0.594375 -0.10781249999999999 -0.1875 -0.07185 -0.35624999999999996 -0.1796625 -0.5062500000000001 -0.32343750000000004 -0.049987500000000004 -0.062475 -0.07500000000000001 -0.118725 -0.07500000000000001 -0.16875 0 -0.049987500000000004 0.0312375 -0.0874875 0.09375 -0.11249999999999999 0.1375125 -0.037500000000000006 0.24375000000000002 -0.11249999999999999 0.31875 -0.22499999999999998 0.07500000000000001 -0.11249999999999999 0.11249999999999999 -0.2374875 0.11249999999999999 -0.375 0 -0.2708625 0.09648749999999999 -0.5010375 0.2895 -0.6905625 0.19301250000000003 -0.18960000000000002 0.4273875 -0.2844375 0.703125 -0.2844375 0.27573749999999997 0 0.507375 0.09525 0.694875 0.28575s0.28125 0.421875 0.28125 0.694125c0 0.35924999999999996 -0.129075 0.6670125 -0.3871875 0.9232500000000001 -0.2581125 0.25627500000000003 -0.568425 0.38437499999999997 -0.9309375 0.38437499999999997Zm1.8431250000000001 -2.53125 -0.28125 -0.28125c-0.1000125 -0.09997500000000001 -0.15000000000000002 -0.231225 -0.15000000000000002 -0.39375000000000004 0 -0.1624875 0.049987500000000004 -0.2937375 0.15000000000000002 -0.39375000000000004l2.7 -2.6624925c0.1000125 -0.10000125000000001 0.2312625 -0.15000000000000002 0.39375000000000004 -0.15000000000000002s0.2937375 0.04999875 0.39375000000000004 0.15000000000000002l0.26249999999999996 0.26249999999999996c0.11249999999999999 0.11249999999999999 0.16875 0.24375000000000002 0.16875 0.39375000000000004s-0.056249999999999994 0.28125 -0.16875 0.39375000000000004L12.75 6.2997c-0.1000125 0.1000125 -0.2312625 0.15000000000000002 -0.39375000000000004 0.15000000000000002s-0.2937375 -0.049987500000000004 -0.39375000000000004 -0.15000000000000002Z"
          stroke-width="0.375"></path>
</svg>