<svg id="Trash--Streamline-Atlas" xmlns="http://www.w3.org/2000/svg" viewBox="-0.565 -0.565 18 18" height="18"
     width="18">
    <desc>
        Trash Streamline Icon: https://streamlinehq.com
    </desc>
    <defs></defs>
    <path d="M11.865233333333332 15.815624999999999H5.004766666666667a1.3355416666666666 1.3355416666666666 0 0 1 -1.3355416666666666 -1.26525L3.0647166666666665 3.739516666666667h10.740566666666666l-0.6045083333333333 10.810858333333334a1.3355416666666666 1.3355416666666666 0 0 1 -1.3355416666666666 1.26525Z"
          fill="none" stroke="currentColor" stroke-miterlimit="10" stroke-width="1.13"></path>
    <path d="m1.7221458333333335 3.739516666666667 13.425708333333334 0" fill="none" stroke="currentColor"
          stroke-miterlimit="10" stroke-width="1.13"></path>
    <path d="M7.092429166666666 1.0543749999999998h2.6851416666666665a1.3425708333333333 1.3425708333333333 0 0 1 1.3425708333333333 1.3425708333333333v1.3425708333333333H5.749858333333333V2.396945833333333a1.3425708333333333 1.3425708333333333 0 0 1 1.3425708333333333 -1.3425708333333333Z"
          fill="none" stroke="currentColor" stroke-miterlimit="10" stroke-width="1.13"></path>
    <path d="m8.434999999999999 5.749858333333333 0 8.055425" fill="none" stroke="currentColor" stroke-miterlimit="10"
          stroke-width="1.13"></path>
    <path d="m11.120141666666667 5.749858333333333 0 8.055425" fill="none" stroke="currentColor" stroke-miterlimit="10"
          stroke-width="1.13"></path>
    <path d="m5.749858333333333 5.749858333333333 0 8.055425" fill="none" stroke="currentColor" stroke-miterlimit="10"
          stroke-width="1.13"></path>
</svg>