<svg viewBox="0 0 18 18" fill="none" xmlns="http://www.w3.org/2000/svg" id="Dots-Vertical--Streamline-Radix" height="18" width="18">
    <desc>
        Dots Vertical Streamline Icon: https://streamlinehq.com
    </desc>
    <path fill-rule="evenodd" clip-rule="evenodd" d="M10.35 3c0 0.7455839999999999 -0.604416 1.3499999999999999 -1.3499999999999999 1.3499999999999999S7.6499999999999995 3.7455839999999996 7.6499999999999995 3 8.254415999999999 1.65 9 1.65s1.3499999999999999 0.604416 1.3499999999999999 1.3499999999999999Zm0 6c0 0.7455839999999999 -0.604416 1.3499999999999999 -1.3499999999999999 1.3499999999999999S7.6499999999999995 9.745584000000001 7.6499999999999995 9 8.254415999999999 7.6499999999999995 9 7.6499999999999995s1.3499999999999999 0.604416 1.3499999999999999 1.3499999999999999ZM9 16.349999999999998c0.7455839999999999 0 1.3499999999999999 -0.60444 1.3499999999999999 -1.3499999999999999s-0.604416 -1.3499999999999999 -1.3499999999999999 -1.3499999999999999 -1.3499999999999999 0.60444 -1.3499999999999999 1.3499999999999999 0.604416 1.3499999999999999 1.3499999999999999 1.3499999999999999Z" fill="#000000" stroke-width="1.2"></path>
</svg>