<svg fill="none" height="18" viewBox="0 0 18 18" width="18" xmlns="http://www.w3.org/2000/svg"><path clip-rule="evenodd" d="m10.35 3c0 .745584-.604416 1.35-1.35 1.35s-1.35-.604416-1.35-1.35.604416-1.35 1.35-1.35 1.35.604416 1.35 1.35zm0 6c0 .745584-.604416 1.35-1.35 1.35s-1.35-.604416-1.35-1.35.604416-1.35 1.35-1.35 1.35.604416 1.35 1.35zm-1.35 7.35c.745584 0 1.35-.60444 1.35-1.35s-.604416-1.35-1.35-1.35-1.35.60444-1.35 1.35.604416 1.35 1.35 1.35z" fill="currentColor" fill-rule="evenodd" stroke-width="1.2"/></svg>