<svg height="40" viewBox="0 0 40 40" width="40" xmlns="http://www.w3.org/2000/svg"><path d="m9.2 4.925a5.86833333 5.86833333 0 0 0 -5.87333333 5.875v4.26333333a3.53333333 3.53333333 0 0 1 -3.32666667 3.53166667l.05.93666667-.05.935a3.53333333 3.53333333 0 0 1 3.32666667 3.535v4.91333333a6.15 6.15 0 0 0 6.13333333 6.16v-1.87166667a4.26666667 4.26666667 0 0 1 -4.26166667-4.26333333v-4.93833333a5.39833333 5.39833333 0 0 0 -2.36666667-4.47 5.43333333 5.43333333 0 0 0 2.36666667-4.47v-4.26166667a4.02 4.02 0 0 1 4.00166667-4.00333333h.72833333v-1.87166667zm20.89666667 0v1.87166667h.72833333a3.98333333 3.98333333 0 0 1 3.97666667 4.00166667v4.26333333a5.43333333 5.43333333 0 0 0 2.36666667 4.47 5.39833333 5.39833333 0 0 0 -2.36666667 4.47v4.93833333a4.26666667 4.26666667 0 0 1 -4.26166667 4.26333333v1.87166667a6.15 6.15 0 0 0 6.13333333-6.16v-4.915a3.53333333 3.53333333 0 0 1 3.32666667-3.53166667l-.05-.93666667.05-.935a3.53333333 3.53333333 0 0 1 -3.32666667-3.53333333v-4.26666667a5.86333333 5.86333333 0 0 0 -5.84833333-5.87333333zm-19.675 7.53833333 5.79666667 5.43166667a5.655 5.655 0 0 0 7.58833333 0l5.79666667-5.43333333h-2.78166667l-4.41666667 4.10666667a3.555 3.555 0 0 1 -4.81 0l-4.39166667-4.10500001zm9.34333333 8.14a5.6 5.6 0 0 0 -3.54666667 1.47666667l-5.82166667 5.45666667h2.78l4.445-4.15833333a3.555 3.555 0 0 1 4.80833333 0l4.41666667 4.15833333h2.78333333l-5.82333333-5.45666667a5.6 5.6 0 0 0 -4.04166667-1.47666667z" stroke-width="1.6667"/></svg>