<svg height="28" viewBox="0 0 28 28" width="28" xmlns="http://www.w3.org/2000/svg"><path d="m20.22183333 3.5a4.27816667 4.27816667 0 0 1 4.27816667 4.27816667v12.44366667a4.27816667 4.27816667 0 0 1 -4.27816667 4.27816666h-12.44366666a4.27816667 4.27816667 0 0 1 -4.27816667-4.27816667v-12.44366666a4.27816667 4.27816667 0 0 1 4.27816667-4.27816667zm-4.18016666 3.5a2.77666667 2.77666667 0 0 0 -2.765 2.5025l-.3325 3.33083333h-2.44416667l-.1365.00816667a1.16666667 1.16666667 0 0 0 .1365 2.32516667h2.20966667l-.30916667 3.09866667-.01633333.08283333a.44333333.44333333 0 0 1 -.42583333.3185.29166667.29166667 0 0 1 -.29166667-.29166667v-.29166667l-.00816667-.1365a1.16666667 1.16666667 0 0 0 -2.32516667.1365v.29166667l.00583333.17966667a2.625 2.625 0 0 0 2.61916667 2.44533333 2.77666667 2.77666667 0 0 0 2.765-2.5025l.33133334-3.33083333h2.44533333l.1365-.00816667a1.16666667 1.16666667 0 0 0 -.1365-2.32516667h-2.21083333l.31033333-3.09866667.01633333-.08283333a.4445.4445 0 0 1 .42583334-.3185.29166667.29166667 0 0 1 .29166667.29166667v.29166667l.00816667.1365a1.16666667 1.16666667 0 0 0 2.32516666-.1365v-.29166667l-.00583333-.17966667a2.625 2.625 0 0 0 -2.61916667-2.44533333z" stroke-width="1.1667"/></svg>