<svg fill="none" height="28" viewBox="0 0 28 28" width="28" xmlns="http://www.w3.org/2000/svg"><g fill="#0d8484"><path d="m14 1.75c.4641 0 .9092.18437 1.2374.51256s.5126.77331.5126 1.23744v1.75h-3.5v-1.75c0-.46413.1844-.90925.5126-1.23744s.7733-.51256 1.2374-.51256z"/><path d="m7 21h14v-8.75c0-1.8565-.7375-3.63699-2.0503-4.94975-1.3127-1.31275-3.0932-2.05025-4.9497-2.05025s-3.637.7375-4.94975 2.05025c-1.31275 1.31276-2.05025 3.09325-2.05025 4.94975zm7-17.5c2.3206 0 4.5462.92187 6.1872 2.56282 1.6409 1.64094 2.5628 3.86654 2.5628 6.18718v10.5h-17.5v-10.5c0-2.32064.92187-4.54624 2.56282-6.18718 1.64094-1.64095 3.86658-2.56282 6.18718-2.56282z"/><path d="m2.625 21h22.75c.5833 0 .875.2917.875.875s-.2917.875-.875.875h-22.75c-.58333 0-.875-.2917-.875-.875s.29167-.875.875-.875zm9.625 3.5h3.5c0 .4641-.1844.9092-.5126 1.2374s-.7733.5126-1.2374.5126-.9092-.1844-1.2374-.5126-.5126-.7733-.5126-1.2374z"/></g></svg>