<svg height="21" viewBox="0 0 21 21" width="21" xmlns="http://www.w3.org/2000/svg"><path clip-rule="evenodd" d="m10.7473 19.6406c4.8325 0 8.75-3.9175 8.75-8.75 0-4.83247-3.9175-8.74997-8.75-8.74997-4.83248 0-8.74999 3.9175-8.74999 8.74997 0 4.8325 3.91751 8.75 8.74999 8.75zm0-1.25c4.1422 0 7.5-3.3578 7.5-7.5 0-4.14211-3.3578-7.49997-7.5-7.49997-4.14212 0-7.49999 3.35786-7.49999 7.49997 0 4.1422 3.35787 7.5 7.49999 7.5z" fill-rule="evenodd"/><path d="m11.4126 15.6361c-.1814.1815-.4233.2722-.6653.2722-.2419 0-.4839-.1058-.6653-.2722-.18146-.1814-.27219-.4233-.27219-.6653 0-.257.10585-.4838.27219-.6653.1814-.1814.4234-.2722.6653-.2722.242 0 .4839.1059.6653.2722.1815.1815.2722.4234.2722.6653 0 .2571-.0907.499-.2722.6653z"/><path d="m11.9723 11.3031c-.175.0625-.325.1875-.4375.3375-.1125.1625-.1625.35-.1625.5375 0 0 0 .425-.1125.5875-.125.15-.3.275-.5125.275s-.3875-.1125-.5125-.275c-.15-.2-.125-.5625-.125-.5625 0-.45.1375-.9.3875-1.2625s.6-.6375 1.0125-.8c.6625-.24997 1.1-.81247 1.1-1.42497 0-.8625-.8375-1.5625-1.875-1.5625-.94999 0-1.73749.5875-1.86249 1.35 0 .025-.0625.4375-.15.525-.075.1125-.2875.2-.475.2s-.35-.0875-.4625-.2125c-.0875-.1-.15-.2375-.1625-.3875 0-.025.0125-.2.0125-.2625.0875-.6375.4-1.225.925-1.675.5875-.51251 1.3625-.8 2.17499-.8.8125 0 1.5875.28749 2.175.8.6125.5375.95 1.25.9375 2.0125.025 1.13749-.725 2.14997-1.875 2.59997z"/></svg>