<svg fill="none" height="12" viewBox="0 0 12 12" width="12" xmlns="http://www.w3.org/2000/svg"><path clip-rule="evenodd" d="m3.82836 7.5665c.19526.19527.51185.19527.70711 0 .19526-.19526.19526-.51184 0-.7071l-2.17675-2.17675h5.15653c.75144 0 1.47211.29851 2.00347.82986.53138.53135.82988 1.25202.82988 2.00347s-.2985 1.47212-.82988 2.00347c-.53136.53135-1.25203.82985-2.00347.82985h-2.16162c-.27614 0-.5.2239-.5.5 0 .2762.22386.5.5.5h2.16162c1.01666 0 1.99168-.4039 2.71055-1.1227.7189-.71893 1.1228-1.69396 1.1228-2.71062s-.4039-1.99169-1.1228-2.71058c-.71886-.71889-1.69389-1.12275-2.71055-1.12275h-5.15653l2.17675-2.17675c.19526-.19527.19526-.511848 0-.70711s-.51185-.195262-.70711 0l-3.029739 3.02974-.000563.00056c-.00218.00218-.004336.00438-.006467.00659-.141903.14713-.175916.3598-.102041.53836.0244.05897.060569.11422.108508.16216z" fill="currentColor" fill-rule="evenodd"/></svg>