<svg fill="none" height="18" viewBox="0 0 18 18" width="18" xmlns="http://www.w3.org/2000/svg"><path clip-rule="evenodd" d="m5.74242 11.3478c.29289.2929.76777.2929 1.06066 0s.29289-.7678 0-1.0607l-3.26512-3.26508h7.73474c1.1272 0 2.2082.44776 3.0053 1.24479.797.79703 1.2447 1.87799 1.2447 3.00519s-.4477 2.2082-1.2447 3.0052c-.7971.7971-1.8781 1.2448-3.0053 1.2448h-3.24237c-.41422 0-.75.3358-.75.75s.33578.75.75.75h3.24237c1.525 0 2.9876-.6058 4.0659-1.6841 1.0783-1.0784 1.6842-2.5409 1.6842-4.0659 0-1.52498-.6059-2.98751-1.6842-4.06585-1.0783-1.07833-2.5409-1.68413-4.0659-1.68413h-7.73474l3.26512-3.26513c.29289-.29289.29289-.76776 0-1.06066-.29289-.292891-.76777-.292891-1.06066 0l-4.54462 4.54463c-.00302.003-.00601.00603-.00897.00909-.13094.13502-.211535.31913-.211535.52207 0 .10169.02024.19865.056905.28708.03577.08645.0884.16757.15789.23833m4.55033 4.55037-4.54495-4.54495z" fill="#ea4335" fill-rule="evenodd"/></svg>