<svg height="20" viewBox="0 0 20 20" width="20" xmlns="http://www.w3.org/2000/svg"><path clip-rule="evenodd" d="m17.787 2.21303c.1625.16254.232.38286.2085.59483-.0065.05942-.0204.11819-.0416.17484l-5.0856 14.5303c-.0985.2814-.3589.4742-.6568.4864-.298.0121-.5732-.1588-.6943-.4313l-2.79546-6.2898-6.28984-2.79552c-.27249-.12111-.44345-.39628-.43129-.69423.01215-.29795.20496-.55829.48641-.6568l14.53028-5.08558c.057-.02134.1161-.03528.1759-.04182.044-.00483.088-.00561.1317-.00247.1684.01203.3333.08242.4621.21115zm-3.282 2.25351-9.80603 3.43209 4.41269 1.9612zm-4.3648 6.42176 5.3933-5.39324-3.4321 9.80594z" fill-rule="evenodd"/></svg>