<svg height="20" viewBox="0 0 24 24" width="20" xmlns="http://www.w3.org/2000/svg"><path d="m14.6483 1.5 5.2035 3-1.008 1.758c.344.4065.6565.85175.9375 1.33575s.5155.984.7035 1.5h2.016v6.00005h-2.016c-.375 1.0469-.922 1.9922-1.641 2.8357l1.008 1.758-5.2035 3-1.008-1.758c-1.094.203-2.1878.203-3.2813 0l-1.00796 1.758-5.2035-3 1.008-1.758c-.3595-.422-.67601-.8713-.94951-1.3478s-.504-.9724-.6915-1.4879h-2.01599v-6.00005h2.01599c.375-1.047.92201-1.99225 1.64101-2.83575l-1.008-1.758 5.2035-3 1.00796 1.758c1.094-.203 2.1878-.203 3.2813 0zm.5625 2.03925-.2813.46875-.516.91425-1.0545-.1875c-.9065-.172-1.8127-.172-2.7187 0l-1.05452.1875-.79724-1.383-2.57851 1.5.77325 1.383-.6795.79725c-.594.703-1.04724 1.492-1.35974 2.367l-.35175 1.008h-1.59375v3h1.5705l.375 1.008c.1565.453.344.867.5625 1.242s.48424.75.79724 1.125l.6795.7973-.77325 1.3829 2.57851 1.5.79724-1.3829 1.05452.1875c.9065.1719 1.8127.1719 2.7187 0l1.0545-.1875.7973 1.3829 2.5785-1.5-.7733-1.3829.6795-.7973c.594-.719 1.0473-1.508 1.3598-2.367l.3517-1.008h1.5938v-3h-1.5705l-.375-1.008c-.1405-.422-.328-.83225-.5625-1.23075s-.5003-.7775-.7973-1.137l-.6795-.79725.7733-1.383zm-3.2108 3.3045c1.4845.0315 2.7228.54325 3.7148 1.53525s1.5037 2.2303 1.5352 3.7148c-.0315 1.4844-.5432 2.7227-1.5352 3.7147s-2.2303 1.5038-3.7148 1.5353c-1.4845-.0315-2.72271-.5433-3.71472-1.5353-.992-.992-1.50374-2.2303-1.53524-3.7147.0315-1.4845.54324-2.7228 1.53524-3.7148.99201-.992 2.23022-1.50375 3.71472-1.53525zm0 1.5c-1.0625.0315-1.9452.39875-2.64822 1.10175-.70299.703-1.07024 1.5857-1.10174 2.6483.0315 1.0624.39875 1.9452 1.10174 2.6482.70302.703 1.58572 1.0703 2.64822 1.1018 1.0625-.0315 1.9453-.3988 2.6483-1.1018s1.0702-1.5858 1.1017-2.6482c-.0315-1.0626-.3987-1.9453-1.1017-2.6483s-1.5858-1.07025-2.6483-1.10175z"/></svg>