<svg height="4" viewBox="0 0 14 4" width="14" xmlns="http://www.w3.org/2000/svg"><path d="m1.75 0c.5.0103333.914.179667 1.242.508s.49733.74233.508 1.242c-.01033.5-.17967.914-.508 1.242s-.74233.49733-1.242.508c-.5-.01033-.914-.17967-1.242-.508s-.4973333-.74233-.508-1.242c.0103333-.5.179667-.914.508-1.242s.74233-.4973333 1.242-.508zm5.25 0c.5.0103333.914.179667 1.242.508s.49733.74233.508 1.242c-.01033.5-.17967.914-.508 1.242s-.74233.49733-1.242.508c-.5-.01033-.914-.17967-1.242-.508s-.49733-.74233-.508-1.242c.01033-.5.17967-.914.508-1.242s.74233-.4973333 1.242-.508zm5.25 0c.5.0103333.914.179667 1.242.508s.4973.74233.508 1.242c-.0103.5-.1797.914-.508 1.242s-.7423.49733-1.242.508c-.5-.01033-.914-.17967-1.242-.508s-.4973-.74233-.508-1.242c.0103-.5.1797-.914.508-1.242s.7423-.4973333 1.242-.508z"/></svg>